<svg id="kity_svg_6" xmlns="http://www.w3.org/2000/svg" xmlns:xlink="http://www.w3.org/1999/xlink" version="1.1" width="998" height="1109" style="background: rgb(251, 251, 251); visibility: visible;" viewBox="0 0 998 1109"><defs id="kity_defs_7"><linearGradient id="kity_linearGradient_17" x1="0" y1="0" x2="0" y2="1"><stop id="kity_stop_18" offset="0" stop-color="rgb(255, 255, 255)"></stop><stop id="kity_stop_19" offset="1" stop-color="rgb(204, 204, 204)"></stop></linearGradient><marker id="kity_marker_2" orient="auto" refX="6" refY="0" viewBox="-7 -7 14 14" markerWidth="7" markerHeight="7" markerUnits="userSpaceOnUse"><path id="kity_path_3" fill="rgb(115, 161, 191)" stroke="none" d="M6,0A6,6,0,1,1,-6,0A6,6,0,1,1,6,0"></path></marker></defs><g id="kity_g_8"><g id="minder1" text-rendering="optimize-speed"><g id="minder_connect_group1"><path id="kity_path_31" fill="none" stroke="rgb(115, 161, 191)" stroke-width="1" d="M127,562.5A215.5,529,0,0,1,342.5,33.5"></path><path id="kity_path_48" fill="none" stroke="rgb(115, 161, 191)" stroke-width="1" d="M127,562.5A224.5,424,0,0,1,351.5,138.5"></path><path id="kity_path_56" fill="none" stroke="rgb(115, 161, 191)" stroke-width="1" d="M127,562.5A224.5,144,0,0,1,351.5,418.5"></path><path id="kity_path_64" fill="none" stroke="rgb(115, 161, 191)" stroke-width="1" d="M127,562.5A224.5,310,0,0,1,351.5,252.5"></path><path id="kity_path_72" fill="none" stroke="rgb(115, 161, 191)" stroke-width="1" d="M460.5,138.5C480.5,138.5,480.5,112.5,500.5,112.5"></path><path id="kity_path_80" fill="none" stroke="rgb(115, 161, 191)" stroke-width="1" d="M460.5,138.5C480.5,138.5,480.5,164.5,500.5,164.5"></path><path id="kity_path_88" fill="none" stroke="rgb(115, 161, 191)" stroke-width="1" d="M480.5,252.5C500.5,252.5,500.5,252.5,520.5,252.5"></path><path id="kity_path_96" fill="none" stroke="rgb(115, 161, 191)" stroke-width="1" d="M588.5,252.5C608.5,252.5,608.5,226.5,628.5,226.5"></path><path id="kity_path_104" fill="none" stroke="rgb(115, 161, 191)" stroke-width="1" d="M588.5,252.5C608.5,252.5,608.5,278.5,628.5,278.5"></path><path id="kity_path_112" fill="none" stroke="rgb(115, 161, 191)" stroke-width="1" d="M507.5,418.5C527.5,418.5,527.5,340.5,547.5,340.5"></path><path id="kity_path_120" fill="none" stroke="rgb(115, 161, 191)" stroke-width="1" d="M507.5,418.5C527.5,418.5,527.5,392.5,547.5,392.5"></path><path id="kity_path_128" fill="none" stroke="rgb(115, 161, 191)" stroke-width="1" d="M507.5,418.5C527.5,418.5,527.5,444.5,547.5,444.5"></path><path id="kity_path_136" fill="none" stroke="rgb(115, 161, 191)" stroke-width="1" d="M507.5,418.5C527.5,418.5,527.5,496.5,547.5,496.5"></path><path id="kity_path_144" fill="none" stroke="rgb(115, 161, 191)" stroke-width="1" d="M127,562.5A224.5,2,0,0,1,351.5,560.5"></path><path id="kity_path_152" fill="none" stroke="rgb(115, 161, 191)" stroke-width="1" d="M421.5,560.5C441.5,560.5,441.5,560.5,461.5,560.5"></path><path id="kity_path_160" fill="none" stroke="rgb(115, 161, 191)" stroke-width="1" d="M127,562.5A224.5,114,0,0,0,351.5,676.5"></path><path id="kity_path_168" fill="none" stroke="rgb(115, 161, 191)" stroke-width="1" d="M589.5,676.5C609.5,676.5,609.5,624.5,629.5,624.5"></path><path id="kity_path_176" fill="none" stroke="rgb(115, 161, 191)" stroke-width="1" d="M589.5,676.5C609.5,676.5,609.5,676.5,629.5,676.5"></path><path id="kity_path_184" fill="none" stroke="rgb(115, 161, 191)" stroke-width="1" d="M589.5,676.5C609.5,676.5,609.5,728.5,629.5,728.5"></path><path id="kity_path_192" fill="none" stroke="rgb(115, 161, 191)" stroke-width="1" d="M127,562.5A224.5,306,0,0,0,351.5,868.5"></path><path id="kity_path_200" fill="none" stroke="rgb(115, 161, 191)" stroke-width="1" d="M436.5,868.5C456.5,868.5,456.5,790.5,476.5,790.5"></path><path id="kity_path_208" fill="none" stroke="rgb(115, 161, 191)" stroke-width="1" d="M127,562.5A224.5,448,0,0,0,351.5,1010.5"></path><path id="kity_path_216" fill="none" stroke="rgb(115, 161, 191)" stroke-width="1" d="M476.5,1010.5C496.5,1010.5,496.5,1010.5,516.5,1010.5"></path><path id="kity_path_224" fill="none" stroke="rgb(115, 161, 191)" stroke-width="1" d="M127,562.5A224.5,514,0,0,0,351.5,1076.5"></path><path id="kity_path_232" fill="none" stroke="rgb(115, 161, 191)" stroke-width="1" d="M425.5,1076.5C445.5,1076.5,445.5,1076.5,465.5,1076.5"></path><path id="kity_path_240" fill="none" stroke="rgb(115, 161, 191)" stroke-width="1" d="M436.5,868.5C456.5,868.5,456.5,842.5,476.5,842.5"></path><path id="kity_path_248" fill="none" stroke="rgb(115, 161, 191)" stroke-width="1" d="M436.5,868.5C456.5,868.5,456.5,946.5,476.5,946.5"></path><path id="kity_path_256" fill="none" stroke="rgb(115, 161, 191)" stroke-width="1" d="M436.5,868.5C456.5,868.5,456.5,894.5,476.5,894.5"></path><path id="kity_path_263" fill="none" stroke="rgb(115, 161, 191)" stroke-width="1" d="M454.5,33.5C474.5,33.5,474.5,33.5,494.5,33.5"></path></g><g id="minder_node1"><path id="node_outline1" fill="rgb(115, 161, 191)" stroke="rgb(115, 161, 191)" d="M25.5,542.5h203a5,5,0,0,1,5,5v30a5,5,0,0,1,-5,5h-203a5,5,0,0,1,-5,-5v-30a5,5,0,0,1,5,-5z" stroke-width="3"></path><g id="node_text1" fill="white"><text id="kity_text_22" text-rendering="inherit" font-size="16" dy=".8em" y="554.5" x="44.5">WPF midi播放器知识点</text></g></g><g id="kity_g_14" display="none"><path id="kity_path_15" fill="rgba(0, 92, 153, 0.5)" stroke="none" d="M476.5,858.5h237v15h-237z"></path><path id="kity_path_16" fill="none" stroke="rgb(0, 76, 128)" d="M476.5,858.5L713.5,858.5" stroke-width="1"></path></g><g id="minder_node2" opacity="1"><g id="node_expander1" style="cursor: pointer;"><path id="kity_path_36" fill="white" stroke="gray" d="M343.5,33.5A6,6,0,1,1,331.5,33.5A6,6,0,1,1,343.5,33.5"></path><path id="kity_path_37" fill="none" stroke="gray" d="M333,33.5L342,33.5"></path></g><path id="node_outline2" fill="rgb(238, 243, 246)" stroke="rgb(115, 161, 191)" d="M347.5,20.5h104a3,3,0,0,1,3,3v20a3,3,0,0,1,-3,3h-104a3,3,0,0,1,-3,-3v-20a3,3,0,0,1,3,-3z" stroke-width="1"></path><g id="node_text2" fill="black"><text id="kity_text_33" text-rendering="inherit" font-size="14" dy=".8em" y="26.5" x="364.5">控件自适应</text></g></g><g id="minder_node4"><g id="node_expander3" style="cursor: pointer;"><path id="kity_path_53" fill="white" stroke="gray" d="M352.5,138.5A6,6,0,1,1,340.5,138.5A6,6,0,1,1,352.5,138.5"></path><path id="kity_path_54" fill="none" stroke="gray" d="M342,138.5L351,138.5"></path></g><path id="node_outline4" fill="rgb(238, 243, 246)" stroke="rgb(115, 161, 191)" d="M356.5,125.5h101a3,3,0,0,1,3,3v20a3,3,0,0,1,-3,3h-101a3,3,0,0,1,-3,-3v-20a3,3,0,0,1,3,-3z" stroke-width="1"></path><g id="node_text4" fill="black"><text id="kity_text_50" text-rendering="inherit" font-size="14" dy=".8em" y="131.5" x="373.5">枚举enum</text></g></g><g id="minder_node5"><g id="node_expander4" style="cursor: pointer;"><path id="kity_path_61" fill="white" stroke="gray" d="M352.5,418.5A6,6,0,1,1,340.5,418.5A6,6,0,1,1,352.5,418.5"></path><path id="kity_path_62" fill="none" stroke="gray" d="M342,418.5L351,418.5"></path></g><path id="node_outline5" fill="rgb(238, 243, 246)" stroke="rgb(115, 161, 191)" d="M356.5,405.5h148a3,3,0,0,1,3,3v20a3,3,0,0,1,-3,3h-148a3,3,0,0,1,-3,-3v-20a3,3,0,0,1,3,-3z" stroke-width="1"></path><g id="node_text5" fill="black"><text id="kity_text_58" text-rendering="inherit" font-size="14" dy=".8em" y="411.5" x="373.5">播放状态切换icon</text></g></g><g id="minder_node6"><g id="node_expander5" style="cursor: pointer;"><path id="kity_path_69" fill="white" stroke="gray" d="M352.5,252.5A6,6,0,1,1,340.5,252.5A6,6,0,1,1,352.5,252.5"></path><path id="kity_path_70" fill="none" stroke="gray" d="M342,252.5L351,252.5"></path></g><path id="node_outline6" fill="rgb(238, 243, 246)" stroke="rgb(115, 161, 191)" d="M356.5,239.5h121a3,3,0,0,1,3,3v20a3,3,0,0,1,-3,3h-121a3,3,0,0,1,-3,-3v-20a3,3,0,0,1,3,-3z" stroke-width="1"></path><g id="node_text6" fill="black"><text id="kity_text_66" text-rendering="inherit" font-size="14" dy=".8em" y="245.5" x="373.5">Setter Getter</text></g></g><g id="minder_node7"><g id="node_expander6" style="cursor: pointer;" display="none"><path id="kity_path_77" fill="white" stroke="gray" d="M500.5,112.5A6,6,0,1,1,488.5,112.5A6,6,0,1,1,500.5,112.5"></path><path id="kity_path_78" fill="none" stroke="gray"></path></g><path id="node_outline7" fill="none" stroke="none" d="M505.5,101.5h58a5,5,0,0,1,5,5v12a5,5,0,0,1,-5,5h-58a5,5,0,0,1,-5,-5v-12a5,5,0,0,1,5,-5z" stroke-width="3"></path><g id="node_text7" fill="black"><text id="kity_text_74" text-rendering="inherit" font-size="12" dy=".8em" y="106.5" x="510.5">播放状态</text></g></g><g id="minder_node8"><g id="node_expander7" style="cursor: pointer;" display="none"><path id="kity_path_85" fill="white" stroke="gray" d="M500.5,164.5A6,6,0,1,1,488.5,164.5A6,6,0,1,1,500.5,164.5"></path><path id="kity_path_86" fill="none" stroke="gray"></path></g><path id="node_outline8" fill="none" stroke="none" d="M505.5,153.5h58a5,5,0,0,1,5,5v12a5,5,0,0,1,-5,5h-58a5,5,0,0,1,-5,-5v-12a5,5,0,0,1,5,-5z" stroke-width="3"></path><g id="node_text8" fill="black"><text id="kity_text_82" text-rendering="inherit" font-size="12" dy=".8em" y="158.5" x="510.5">播放模式</text></g></g><g id="minder_node9"><g id="node_expander8" style="cursor: pointer;"><path id="kity_path_93" fill="white" stroke="gray" d="M520.5,252.5A6,6,0,1,1,508.5,252.5A6,6,0,1,1,520.5,252.5"></path><path id="kity_path_94" fill="none" stroke="gray" d="M510,252.5L519,252.5"></path></g><path id="node_outline9" fill="none" stroke="none" d="M525.5,241.5h58a5,5,0,0,1,5,5v12a5,5,0,0,1,-5,5h-58a5,5,0,0,1,-5,-5v-12a5,5,0,0,1,5,-5z" stroke-width="3"></path><g id="node_text9" fill="black"><text id="kity_text_90" text-rendering="inherit" font-size="12" dy=".8em" y="246.5" x="530.5">播放状态</text></g></g><g id="minder_node10"><g id="node_expander9" style="cursor: pointer;" display="none"><path id="kity_path_101" fill="white" stroke="gray" d="M628.5,226.5A6,6,0,1,1,616.5,226.5A6,6,0,1,1,628.5,226.5"></path><path id="kity_path_102" fill="none" stroke="gray"></path></g><path id="node_outline10" fill="none" stroke="none" d="M633.5,215.5h190a5,5,0,0,1,5,5v12a5,5,0,0,1,-5,5h-190a5,5,0,0,1,-5,-5v-12a5,5,0,0,1,5,-5z" stroke-width="3"></path><g id="node_text10" fill="black"><text id="kity_text_98" text-rendering="inherit" font-size="12" dy=".8em" y="220.5" x="638.5">设置播放状态的同时调整播放按钮</text></g></g><g id="minder_node11"><g id="node_expander10" style="cursor: pointer;" display="none"><path id="kity_path_109" fill="white" stroke="gray" d="M628.5,278.5A6,6,0,1,1,616.5,278.5A6,6,0,1,1,628.5,278.5"></path><path id="kity_path_110" fill="none" stroke="gray"></path></g><path id="node_outline11" fill="none" stroke="none" d="M633.5,267.5h192a5,5,0,0,1,5,5v12a5,5,0,0,1,-5,5h-192a5,5,0,0,1,-5,-5v-12a5,5,0,0,1,5,-5z" stroke-width="3"></path><g id="node_text11" fill="black"><text id="kity_text_106" text-rendering="inherit" font-size="12" dy=".8em" y="272.5" x="638.5">通过Getter直接获取播放状态的值</text></g></g><g id="minder_node12"><g id="node_expander11" style="cursor: pointer;" display="none"><path id="kity_path_117" fill="white" stroke="gray" d="M547.5,340.5A6,6,0,1,1,535.5,340.5A6,6,0,1,1,547.5,340.5"></path><path id="kity_path_118" fill="none" stroke="gray"></path></g><path id="node_outline12" fill="none" stroke="none" d="M552.5,329.5h185a5,5,0,0,1,5,5v12a5,5,0,0,1,-5,5h-185a5,5,0,0,1,-5,-5v-12a5,5,0,0,1,5,-5z" stroke-width="3"></path><g id="node_text12" fill="black"><text id="kity_text_114" text-rendering="inherit" font-size="12" dy=".8em" y="334.5" x="557.5">BitmapImage：声明一个该对象</text></g></g><g id="minder_node13"><g id="node_expander12" style="cursor: pointer;" display="none"><path id="kity_path_125" fill="white" stroke="gray" d="M547.5,392.5A6,6,0,1,1,535.5,392.5A6,6,0,1,1,547.5,392.5"></path><path id="kity_path_126" fill="none" stroke="gray"></path></g><path id="node_outline13" fill="none" stroke="none" d="M552.5,381.5h119a5,5,0,0,1,5,5v12a5,5,0,0,1,-5,5h-119a5,5,0,0,1,-5,-5v-12a5,5,0,0,1,5,-5z" stroke-width="3"></path><g id="node_text13" fill="black"><text id="kity_text_122" text-rendering="inherit" font-size="12" dy=".8em" y="386.5" x="557.5">BeginInit：开始绘制</text></g></g><g id="minder_node14"><g id="node_expander13" style="cursor: pointer;" display="none"><path id="kity_path_133" fill="white" stroke="gray" d="M547.5,444.5A6,6,0,1,1,535.5,444.5A6,6,0,1,1,547.5,444.5"></path><path id="kity_path_134" fill="none" stroke="gray"></path></g><path id="node_outline14" fill="none" stroke="none" d="M552.5,433.5h175a5,5,0,0,1,5,5v12a5,5,0,0,1,-5,5h-175a5,5,0,0,1,-5,-5v-12a5,5,0,0,1,5,-5z" stroke-width="3"></path><g id="node_text14" fill="black"><text id="kity_text_130" text-rendering="inherit" font-size="12" dy=".8em" y="438.5" x="557.5">UriSource：设置图片的source</text></g></g><g id="minder_node15"><g id="node_expander14" style="cursor: pointer;" display="none"><path id="kity_path_141" fill="white" stroke="gray" d="M547.5,496.5A6,6,0,1,1,535.5,496.5A6,6,0,1,1,547.5,496.5"></path><path id="kity_path_142" fill="none" stroke="gray"></path></g><path id="node_outline15" fill="none" stroke="none" d="M552.5,485.5h144a5,5,0,0,1,5,5v12a5,5,0,0,1,-5,5h-144a5,5,0,0,1,-5,-5v-12a5,5,0,0,1,5,-5z" stroke-width="3"></path><g id="node_text15" fill="black"><text id="kity_text_138" text-rendering="inherit" font-size="12" dy=".8em" y="490.5" x="557.5">EndInit：结束图片的绘制</text></g></g><g id="minder_node16"><g id="node_expander15" style="cursor: pointer;"><path id="kity_path_149" fill="white" stroke="gray" d="M352.5,560.5A6,6,0,1,1,340.5,560.5A6,6,0,1,1,352.5,560.5"></path><path id="kity_path_150" fill="none" stroke="gray" d="M342,560.5L351,560.5"></path></g><path id="node_outline16" fill="rgb(238, 243, 246)" stroke="rgb(115, 161, 191)" d="M356.5,547.5h62a3,3,0,0,1,3,3v20a3,3,0,0,1,-3,3h-62a3,3,0,0,1,-3,-3v-20a3,3,0,0,1,3,-3z" stroke-width="1"></path><g id="node_text16" fill="black"><text id="kity_text_146" text-rendering="inherit" font-size="14" dy=".8em" y="553.5" x="373.5">线程</text></g></g><g id="minder_node17"><g id="node_expander16" style="cursor: pointer;" display="none"><path id="kity_path_157" fill="white" stroke="gray" d="M461.5,560.5A6,6,0,1,1,449.5,560.5A6,6,0,1,1,461.5,560.5"></path><path id="kity_path_158" fill="none" stroke="gray"></path></g><path id="node_outline17" fill="none" stroke="none" d="M466.5,549.5h281a5,5,0,0,1,5,5v12a5,5,0,0,1,-5,5h-281a5,5,0,0,1,-5,-5v-12a5,5,0,0,1,5,-5z" stroke-width="3"></path><g id="node_text17" fill="black"><text id="kity_text_154" text-rendering="inherit" font-size="12" dy=".8em" y="554.5" x="471.5">Dispatcher.Invoke：将对UI的修改都代理给主线程</text></g></g><g id="minder_node18"><g id="node_expander17" style="cursor: pointer;"><path id="kity_path_165" fill="white" stroke="gray" d="M352.5,676.5A6,6,0,1,1,340.5,676.5A6,6,0,1,1,352.5,676.5"></path><path id="kity_path_166" fill="none" stroke="gray" d="M342,676.5L351,676.5"></path></g><path id="node_outline18" fill="rgb(238, 243, 246)" stroke="rgb(115, 161, 191)" d="M356.5,663.5h230a3,3,0,0,1,3,3v20a3,3,0,0,1,-3,3h-230a3,3,0,0,1,-3,-3v-20a3,3,0,0,1,3,-3z" stroke-width="1"></path><g id="node_text18" fill="black"><text id="kity_text_162" text-rendering="inherit" font-size="14" dy=".8em" y="669.5" x="373.5">打开本地本间并添加到播放列表</text></g></g><g id="minder_node19"><g id="node_expander18" style="cursor: pointer;" display="none"><path id="kity_path_173" fill="white" stroke="gray" d="M629.5,624.5A6,6,0,1,1,617.5,624.5A6,6,0,1,1,629.5,624.5"></path><path id="kity_path_174" fill="none" stroke="gray"></path></g><path id="node_outline19" fill="none" stroke="none" d="M634.5,613.5h196a5,5,0,0,1,5,5v12a5,5,0,0,1,-5,5h-196a5,5,0,0,1,-5,-5v-12a5,5,0,0,1,5,-5z" stroke-width="3"></path><g id="node_text19" fill="black"><text id="kity_text_170" text-rendering="inherit" font-size="12" dy=".8em" y="618.5" x="639.5">OpenFileDialog：打开本地文件类</text></g></g><g id="minder_node20"><g id="node_expander19" style="cursor: pointer;" display="none"><path id="kity_path_181" fill="white" stroke="gray" d="M629.5,676.5A6,6,0,1,1,617.5,676.5A6,6,0,1,1,629.5,676.5"></path><path id="kity_path_182" fill="none" stroke="gray"></path></g><path id="node_outline20" fill="none" stroke="none" d="M634.5,665.5h243a5,5,0,0,1,5,5v12a5,5,0,0,1,-5,5h-243a5,5,0,0,1,-5,-5v-12a5,5,0,0,1,5,-5z" stroke-width="3"></path><g id="node_text20" fill="black"><text id="kity_text_178" text-rendering="inherit" font-size="12" dy=".8em" y="670.5" x="639.5">InitialDirectory：设置more打开的文件目录</text></g></g><g id="minder_node21"><g id="node_expander20" style="cursor: pointer;" display="none"><path id="kity_path_189" fill="white" stroke="gray" d="M629.5,728.5A6,6,0,1,1,617.5,728.5A6,6,0,1,1,629.5,728.5"></path><path id="kity_path_190" fill="none" stroke="gray"></path></g><path id="node_outline21" fill="none" stroke="none" d="M634.5,717.5h307a5,5,0,0,1,5,5v12a5,5,0,0,1,-5,5h-307a5,5,0,0,1,-5,-5v-12a5,5,0,0,1,5,-5z" stroke-width="3"></path><g id="node_text21" fill="black"><text id="kity_text_186" text-rendering="inherit" font-size="12" dy=".8em" y="722.5" x="639.5">ShowDialog：在界面上显示出与用户可交互的文件界面</text></g></g><g id="minder_node22"><g id="node_expander21" style="cursor: pointer;"><path id="kity_path_197" fill="white" stroke="gray" d="M352.5,868.5A6,6,0,1,1,340.5,868.5A6,6,0,1,1,352.5,868.5"></path><path id="kity_path_198" fill="none" stroke="gray" d="M342,868.5L351,868.5"></path></g><path id="node_outline22" fill="rgb(238, 243, 246)" stroke="rgb(115, 161, 191)" d="M356.5,855.5h77a3,3,0,0,1,3,3v20a3,3,0,0,1,-3,3h-77a3,3,0,0,1,-3,-3v-20a3,3,0,0,1,3,-3z" stroke-width="1"></path><g id="node_text22" fill="black"><text id="kity_text_194" text-rendering="inherit" font-size="14" dy=".8em" y="861.5" x="373.5">ListBox</text></g></g><g id="minder_node23"><g id="node_expander22" style="cursor: pointer;" display="none"><path id="kity_path_205" fill="white" stroke="gray" d="M476.5,790.5A6,6,0,1,1,464.5,790.5A6,6,0,1,1,476.5,790.5"></path><path id="kity_path_206" fill="none" stroke="gray"></path></g><path id="node_outline23" fill="none" stroke="none" d="M481.5,779.5h275a5,5,0,0,1,5,5v12a5,5,0,0,1,-5,5h-275a5,5,0,0,1,-5,-5v-12a5,5,0,0,1,5,-5z" stroke-width="3"></path><g id="node_text23" fill="black"><text id="kity_text_202" text-rendering="inherit" font-size="12" dy=".8em" y="784.5" x="486.5">add：添加用户选中的midi文件的路径到播放列表</text></g></g><g id="minder_node24"><g id="node_expander23" style="cursor: pointer;"><path id="kity_path_213" fill="white" stroke="gray" d="M352.5,1010.5A6,6,0,1,1,340.5,1010.5A6,6,0,1,1,352.5,1010.5"></path><path id="kity_path_214" fill="none" stroke="gray" d="M342,1010.5L351,1010.5"></path></g><path id="node_outline24" fill="rgb(238, 243, 246)" stroke="rgb(115, 161, 191)" d="M356.5,997.5h117a3,3,0,0,1,3,3v20a3,3,0,0,1,-3,3h-117a3,3,0,0,1,-3,-3v-20a3,3,0,0,1,3,-3z" stroke-width="1"></path><g id="node_text24" fill="black"><text id="kity_text_210" text-rendering="inherit" font-size="14" dy=".8em" y="1003.5" x="373.5">RadioButton</text></g></g><g id="minder_node25"><g id="node_expander24" style="cursor: pointer;" display="none"><path id="kity_path_221" fill="white" stroke="gray" d="M516.5,1010.5A6,6,0,1,1,504.5,1010.5A6,6,0,1,1,516.5,1010.5"></path><path id="kity_path_222" fill="none" stroke="gray"></path></g><path id="node_outline25" fill="none" stroke="none" d="M521.5,999.5h452a5,5,0,0,1,5,5v12a5,5,0,0,1,-5,5h-452a5,5,0,0,1,-5,-5v-12a5,5,0,0,1,5,-5z" stroke-width="3"></path><g id="node_text25" fill="black"><text id="kity_text_218" text-rendering="inherit" font-size="12" dy=".8em" y="1004.5" x="526.5">实现点击切换播放模式事件，将sender通过as引用为button，获取具体点击button</text></g></g><g id="minder_node26"><g id="node_expander25" style="cursor: pointer;"><path id="kity_path_229" fill="white" stroke="gray" d="M352.5,1076.5A6,6,0,1,1,340.5,1076.5A6,6,0,1,1,352.5,1076.5"></path><path id="kity_path_230" fill="none" stroke="gray" d="M342,1076.5L351,1076.5"></path></g><path id="node_outline26" fill="rgb(238, 243, 246)" stroke="rgb(115, 161, 191)" d="M356.5,1063.5h66a3,3,0,0,1,3,3v20a3,3,0,0,1,-3,3h-66a3,3,0,0,1,-3,-3v-20a3,3,0,0,1,3,-3z" stroke-width="1"></path><g id="node_text26" fill="black"><text id="kity_text_226" text-rendering="inherit" font-size="14" dy=".8em" y="1069.5" x="373.5">path</text></g></g><g id="minder_node27"><g id="node_expander26" style="cursor: pointer;" display="none"><path id="kity_path_237" fill="white" stroke="gray" d="M465.5,1076.5A6,6,0,1,1,453.5,1076.5A6,6,0,1,1,465.5,1076.5"></path><path id="kity_path_238" fill="none" stroke="gray"></path></g><path id="node_outline27" fill="none" stroke="none" d="M470.5,1065.5h377a5,5,0,0,1,5,5v12a5,5,0,0,1,-5,5h-377a5,5,0,0,1,-5,-5v-12a5,5,0,0,1,5,-5z" stroke-width="3"></path><g id="node_text27" fill="black"><text id="kity_text_234" text-rendering="inherit" font-size="12" dy=".8em" y="1070.5" x="475.5">GetFileNameWithoutExtension：截取路径中不带文件格式的文件名</text></g></g><g id="minder_node28"><g id="node_expander27" style="cursor: pointer;" display="none"><path id="kity_path_245" fill="white" stroke="gray" d="M476.5,842.5A6,6,0,1,1,464.5,842.5A6,6,0,1,1,476.5,842.5"></path><path id="kity_path_246" fill="none" stroke="gray"></path></g><path id="node_outline28" fill="none" stroke="none" d="M481.5,831.5h227a5,5,0,0,1,5,5v12a5,5,0,0,1,-5,5h-227a5,5,0,0,1,-5,-5v-12a5,5,0,0,1,5,-5z" stroke-width="3"></path><g id="node_text28" fill="black"><text id="kity_text_242" text-rendering="inherit" font-size="12" dy=".8em" y="836.5" x="486.5">MouseDoubleClick：获取鼠标双击事件</text></g></g><g id="minder_node29"><g id="node_expander28" style="cursor: pointer;" display="none"><path id="kity_path_253" fill="white" stroke="gray" d="M476.5,946.5A6,6,0,1,1,464.5,946.5A6,6,0,1,1,476.5,946.5"></path><path id="kity_path_254" fill="none" stroke="gray"></path></g><path id="node_outline29" fill="none" stroke="none" d="M481.5,935.5h222a5,5,0,0,1,5,5v12a5,5,0,0,1,-5,5h-222a5,5,0,0,1,-5,-5v-12a5,5,0,0,1,5,-5z" stroke-width="3"></path><g id="node_text29" fill="black"><text id="kity_text_250" text-rendering="inherit" font-size="12" dy=".8em" y="940.5" x="486.5">ListBox.NoMatches：匹配点击的index</text></g></g><g id="minder_node30" opacity="1"><g id="node_expander29" style="cursor: pointer;" display="none"><path id="kity_path_261" fill="white" stroke="gray" d="M476.5,894.5A6,6,0,1,1,464.5,894.5A6,6,0,1,1,476.5,894.5"></path><path id="kity_path_262" fill="none" stroke="gray"></path></g><path id="node_outline30" fill="none" stroke="none" d="M481.5,883.5h344a5,5,0,0,1,5,5v12a5,5,0,0,1,-5,5h-344a5,5,0,0,1,-5,-5v-12a5,5,0,0,1,5,-5z" stroke-width="3"></path><g id="node_text30" fill="black"><text id="kity_text_258" text-rendering="inherit" font-size="12" dy=".8em" y="888.5" x="486.5">IndexFromPoint(e.location)：通过双击位置获取item的idnex</text></g></g><g id="kity_g_12" display="none"><path id="kity_path_13" fill="none" stroke="rgb(66, 94, 112)" d="M481.5,831.5h227a5,5,0,0,1,5,5v12a5,5,0,0,1,-5,5h-227a5,5,0,0,1,-5,-5v-12a5,5,0,0,1,5,-5z" stroke-width="5"></path></g><g id="minder_node3"><g id="node_expander2" style="cursor: pointer;" display="none"><path id="kity_path_44" fill="white" stroke="gray" d="M494.5,33.5A6,6,0,1,1,482.5,33.5A6,6,0,1,1,494.5,33.5"></path><path id="kity_path_45" fill="none" stroke="gray"></path></g><path id="node_outline3" fill="none" stroke="none" d="M499.5,22.5h374a5,5,0,0,1,5,5v12a5,5,0,0,1,-5,5h-374a5,5,0,0,1,-5,-5v-12a5,5,0,0,1,5,-5z" stroke-width="3"></path><g id="node_text3" fill="black"><text id="kity_text_41" text-rendering="inherit" font-size="12" dy=".8em" y="27.5" x="504.5">Viewbox：通过ViewBox包装控件，实现控件随着窗口的缩放而缩放</text></g></g></g></g></svg>