<svg id="kity_svg_6" xmlns="http://www.w3.org/2000/svg" xmlns:xlink="http://www.w3.org/1999/xlink" version="1.1" width="1132" height="1858" style="background: rgb(251, 251, 251); visibility: visible;" viewBox="0 0 1132 1858"><defs id="kity_defs_7"><linearGradient id="kity_linearGradient_17" x1="0" y1="0" x2="0" y2="1"><stop id="kity_stop_18" offset="0" stop-color="rgb(255, 255, 255)"></stop><stop id="kity_stop_19" offset="1" stop-color="rgb(204, 204, 204)"></stop></linearGradient><marker id="kity_marker_2" orient="auto" refX="6" refY="0" viewBox="-7 -7 14 14" markerWidth="7" markerHeight="7" markerUnits="userSpaceOnUse"><path id="kity_path_3" fill="rgb(115, 161, 191)" stroke="none" d="M6,0A6,6,0,1,1,-6,0A6,6,0,1,1,6,0"></path></marker></defs><g id="kity_g_8"><g id="minder1" text-rendering="optimize-speed"><g id="minder_connect_group1"><path id="kity_path_31" fill="none" stroke="rgb(115, 161, 191)" stroke-width="1" d="M104,929.5A201.5,846,0,0,1,305.5,83.5"></path><path id="kity_path_33" fill="none" stroke="rgb(115, 161, 191)" stroke-width="1" d="M404.5,83.5C424.5,83.5,424.5,31.5,444.5,31.5"></path><path id="kity_path_35" fill="none" stroke="rgb(115, 161, 191)" stroke-width="1" d="M404.5,83.5C424.5,83.5,424.5,83.5,444.5,83.5"></path><path id="kity_path_37" fill="none" stroke="rgb(115, 161, 191)" stroke-width="1" d="M404.5,83.5C424.5,83.5,424.5,135.5,444.5,135.5"></path><path id="kity_path_39" fill="none" stroke="rgb(115, 161, 191)" stroke-width="1" d="M104,929.5A201.5,654,0,0,1,305.5,275.5"></path><path id="kity_path_49" fill="none" stroke="rgb(115, 161, 191)" stroke-width="1" d="M104,929.5A201.5,436,0,0,1,305.5,493.5"></path><path id="kity_path_59" fill="none" stroke="rgb(115, 161, 191)" stroke-width="1" d="M104,929.5A201.5,192,0,0,1,305.5,737.5"></path><path id="kity_path_61" fill="none" stroke="rgb(115, 161, 191)" stroke-width="1" d="M417.5,737.5C437.5,737.5,437.5,633.5,457.5,633.5"></path><path id="kity_path_63" fill="none" stroke="rgb(115, 161, 191)" stroke-width="1" d="M417.5,737.5C437.5,737.5,437.5,685.5,457.5,685.5"></path><path id="kity_path_65" fill="none" stroke="rgb(115, 161, 191)" stroke-width="1" d="M417.5,737.5C437.5,737.5,437.5,737.5,457.5,737.5"></path><path id="kity_path_67" fill="none" stroke="rgb(115, 161, 191)" stroke-width="1" d="M417.5,737.5C437.5,737.5,437.5,789.5,457.5,789.5"></path><path id="kity_path_69" fill="none" stroke="rgb(115, 161, 191)" stroke-width="1" d="M417.5,737.5C437.5,737.5,437.5,841.5,457.5,841.5"></path><path id="kity_path_71" fill="none" stroke="rgb(115, 161, 191)" stroke-width="1" d="M104,929.5A201.5,26,0,0,0,305.5,955.5"></path><path id="kity_path_73" fill="none" stroke="rgb(115, 161, 191)" stroke-width="1" d="M431.5,955.5C451.5,955.5,451.5,903.5,471.5,903.5"></path><path id="kity_path_75" fill="none" stroke="rgb(115, 161, 191)" stroke-width="1" d="M431.5,955.5C451.5,955.5,451.5,955.5,471.5,955.5"></path><path id="kity_path_77" fill="none" stroke="rgb(115, 161, 191)" stroke-width="1" d="M431.5,955.5C451.5,955.5,451.5,1007.5,471.5,1007.5"></path><path id="kity_path_79" fill="none" stroke="rgb(115, 161, 191)" stroke-width="1" d="M104,929.5A201.5,244,0,0,0,305.5,1173.5"></path><path id="kity_path_91" fill="none" stroke="rgb(115, 161, 191)" stroke-width="1" d="M104,929.5A201.5,488,0,0,0,305.5,1417.5"></path><path id="kity_path_101" fill="none" stroke="rgb(115, 161, 191)" stroke-width="1" d="M104,929.5A201.5,680,0,0,0,305.5,1609.5"></path><path id="kity_path_109" fill="none" stroke="rgb(115, 161, 191)" stroke-width="1" d="M104,929.5A201.5,846,0,0,0,305.5,1775.5"></path><path id="kity_path_392" fill="none" stroke="rgb(115, 161, 191)" stroke-width="1" d="M435.5,1775.5C455.5,1775.5,455.5,1723.5,475.5,1723.5"></path><path id="kity_path_393" fill="none" stroke="rgb(115, 161, 191)" stroke-width="1" d="M435.5,1775.5C455.5,1775.5,455.5,1775.5,475.5,1775.5"></path><path id="kity_path_394" fill="none" stroke="rgb(115, 161, 191)" stroke-width="1" d="M435.5,1775.5C455.5,1775.5,455.5,1827.5,475.5,1827.5"></path><path id="kity_path_395" fill="none" stroke="rgb(115, 161, 191)" stroke-width="1" d="M403.5,1417.5C423.5,1417.5,423.5,1339.5,443.5,1339.5"></path><path id="kity_path_396" fill="none" stroke="rgb(115, 161, 191)" stroke-width="1" d="M403.5,1417.5C423.5,1417.5,423.5,1391.5,443.5,1391.5"></path><path id="kity_path_397" fill="none" stroke="rgb(115, 161, 191)" stroke-width="1" d="M403.5,1417.5C423.5,1417.5,423.5,1443.5,443.5,1443.5"></path><path id="kity_path_398" fill="none" stroke="rgb(115, 161, 191)" stroke-width="1" d="M403.5,1417.5C423.5,1417.5,423.5,1495.5,443.5,1495.5"></path><path id="kity_path_425" fill="none" stroke="rgb(115, 161, 191)" stroke-width="1" d="M466.5,1173.5C486.5,1173.5,486.5,1069.5,506.5,1069.5"></path><path id="kity_path_426" fill="none" stroke="rgb(115, 161, 191)" stroke-width="1" d="M466.5,1173.5C486.5,1173.5,486.5,1121.5,506.5,1121.5"></path><path id="kity_path_427" fill="none" stroke="rgb(115, 161, 191)" stroke-width="1" d="M466.5,1173.5C486.5,1173.5,486.5,1173.5,506.5,1173.5"></path><path id="kity_path_428" fill="none" stroke="rgb(115, 161, 191)" stroke-width="1" d="M466.5,1173.5C486.5,1173.5,486.5,1225.5,506.5,1225.5"></path><path id="kity_path_429" fill="none" stroke="rgb(115, 161, 191)" stroke-width="1" d="M466.5,1173.5C486.5,1173.5,486.5,1277.5,506.5,1277.5"></path><path id="kity_path_492" fill="none" stroke="rgb(115, 161, 191)" stroke-width="1" d="M507.5,1609.5C527.5,1609.5,527.5,1557.5,547.5,1557.5"></path><path id="kity_path_493" fill="none" stroke="rgb(115, 161, 191)" stroke-width="1" d="M507.5,1609.5C527.5,1609.5,527.5,1609.5,547.5,1609.5"></path><path id="kity_path_494" fill="none" stroke="rgb(115, 161, 191)" stroke-width="1" d="M507.5,1609.5C527.5,1609.5,527.5,1661.5,547.5,1661.5"></path><path id="kity_path_495" fill="none" stroke="rgb(115, 161, 191)" stroke-width="1" d="M466.5,493.5C486.5,493.5,486.5,415.5,506.5,415.5"></path><path id="kity_path_496" fill="none" stroke="rgb(115, 161, 191)" stroke-width="1" d="M466.5,493.5C486.5,493.5,486.5,467.5,506.5,467.5"></path><path id="kity_path_497" fill="none" stroke="rgb(115, 161, 191)" stroke-width="1" d="M466.5,493.5C486.5,493.5,486.5,519.5,506.5,519.5"></path><path id="kity_path_498" fill="none" stroke="rgb(115, 161, 191)" stroke-width="1" d="M466.5,493.5C486.5,493.5,486.5,571.5,506.5,571.5"></path><path id="kity_path_499" fill="none" stroke="rgb(115, 161, 191)" stroke-width="1" d="M403.5,275.5C423.5,275.5,423.5,197.5,443.5,197.5"></path><path id="kity_path_500" fill="none" stroke="rgb(115, 161, 191)" stroke-width="1" d="M403.5,275.5C423.5,275.5,423.5,249.5,443.5,249.5"></path><path id="kity_path_501" fill="none" stroke="rgb(115, 161, 191)" stroke-width="1" d="M403.5,275.5C423.5,275.5,423.5,301.5,443.5,301.5"></path><path id="kity_path_502" fill="none" stroke="rgb(115, 161, 191)" stroke-width="1" d="M403.5,275.5C423.5,275.5,423.5,353.5,443.5,353.5"></path></g><g id="minder_node1"><path id="node_outline1" fill="rgb(115, 161, 191)" stroke="rgb(115, 161, 191)" d="M25.5,909.5h157a5,5,0,0,1,5,5v30a5,5,0,0,1,-5,5h-157a5,5,0,0,1,-5,-5v-30a5,5,0,0,1,5,-5z" stroke-width="3"></path><g id="node_text1" fill="white"><text id="kity_text_22" text-rendering="inherit" font-size="16" dy=".8em" y="921.5" x="44.5">SerialPort知识点</text></g></g><g id="kity_g_14" display="none"><path id="kity_path_15" fill="rgba(0, 92, 153, 0.5)" stroke="none" d="M-638.5,764.5h260v15h-260z"></path><path id="kity_path_16" fill="none" stroke="rgb(0, 76, 128)" d="M-638.5,764.5L-378.5,764.5" stroke-width="1"></path></g><g id="minder_node2"><g id="node_expander4" style="cursor: pointer;"><path id="kity_path_250" fill="white" stroke="gray" d="M306.5,83.5A6,6,0,1,1,294.5,83.5A6,6,0,1,1,306.5,83.5"></path><path id="kity_path_251" fill="none" stroke="gray" d="M296,83.5L305,83.5"></path></g><path id="node_outline5" fill="rgb(238, 243, 246)" stroke="rgb(57, 80, 96)" d="M310.5,70.5h91a3,3,0,0,1,3,3v20a3,3,0,0,1,-3,3h-91a3,3,0,0,1,-3,-3v-20a3,3,0,0,1,3,-3z" stroke-width="3"></path><g id="node_text5" fill="black"><text id="kity_text_121" text-rendering="inherit" font-size="14" dy=".8em" y="76.5" x="327.5">Grid布局</text></g></g><g id="minder_node3"><g id="node_expander1" style="cursor: pointer;" display="none"><path id="kity_path_241" fill="white" stroke="gray" d="M444.5,31.5A6,6,0,1,1,432.5,31.5A6,6,0,1,1,444.5,31.5"></path><path id="kity_path_242" fill="none" stroke="gray"></path></g><path id="node_outline2" fill="none" stroke="none" d="M449.5,20.5h307a5,5,0,0,1,5,5v12a5,5,0,0,1,-5,5h-307a5,5,0,0,1,-5,-5v-12a5,5,0,0,1,5,-5z"></path><g id="node_text2" fill="black"><text id="kity_text_115" text-rendering="inherit" font-size="12" dy=".8em" y="25.5" x="454.5">ColumuDefinitions：定义列的数目的宽度（同行定义）</text></g></g><g id="minder_node4"><g id="node_expander2" style="cursor: pointer;" display="none"><path id="kity_path_244" fill="white" stroke="gray" d="M444.5,83.5A6,6,0,1,1,432.5,83.5A6,6,0,1,1,444.5,83.5"></path><path id="kity_path_245" fill="none" stroke="gray"></path></g><path id="node_outline3" fill="none" stroke="none" d="M449.5,72.5h341a5,5,0,0,1,5,5v12a5,5,0,0,1,-5,5h-341a5,5,0,0,1,-5,-5v-12a5,5,0,0,1,5,-5z"></path><g id="node_text3" fill="black"><text id="kity_text_117" text-rendering="inherit" font-size="12" dy=".8em" y="77.5" x="454.5">Grid.Colum：根据下标定义组件的所在网格位置（用行定义） </text></g></g><g id="minder_node5"><g id="node_expander3" style="cursor: pointer;" display="none"><path id="kity_path_247" fill="white" stroke="gray" d="M444.5,135.5A6,6,0,1,1,432.5,135.5A6,6,0,1,1,444.5,135.5"></path><path id="kity_path_248" fill="none" stroke="gray"></path></g><path id="node_outline4" fill="none" stroke="none" d="M449.5,124.5h294a5,5,0,0,1,5,5v12a5,5,0,0,1,-5,5h-294a5,5,0,0,1,-5,-5v-12a5,5,0,0,1,5,-5z"></path><g id="node_text4" fill="black"><text id="kity_text_119" text-rendering="inherit" font-size="12" dy=".8em" y="129.5" x="454.5">Grid.ColumnSpan：定义横跨列的数量（同行定义）</text></g></g><g id="minder_node6" opacity="1"><g id="node_expander9" style="cursor: pointer;"><path id="kity_path_265" fill="white" stroke="gray" d="M306.5,275.5A6,6,0,1,1,294.5,275.5A6,6,0,1,1,306.5,275.5"></path><path id="kity_path_266" fill="none" stroke="gray" d="M296,275.5L305,275.5"></path></g><path id="node_outline10" fill="rgb(238, 243, 246)" stroke="rgb(115, 161, 191)" d="M310.5,262.5h90a3,3,0,0,1,3,3v20a3,3,0,0,1,-3,3h-90a3,3,0,0,1,-3,-3v-20a3,3,0,0,1,3,-3z" stroke-width="1"></path><g id="node_text10" fill="black"><text id="kity_text_131" text-rendering="inherit" font-size="14" dy=".8em" y="268.5" x="327.5">midi通信</text></g></g><g id="minder_node11" opacity="1"><g id="node_expander14" style="cursor: pointer;"><path id="kity_path_280" fill="white" stroke="gray" d="M306.5,493.5A6,6,0,1,1,294.5,493.5A6,6,0,1,1,306.5,493.5"></path><path id="kity_path_281" fill="none" stroke="gray" d="M296,493.5L305,493.5"></path></g><path id="node_outline15" fill="rgb(238, 243, 246)" stroke="rgb(115, 161, 191)" d="M310.5,480.5h153a3,3,0,0,1,3,3v20a3,3,0,0,1,-3,3h-153a3,3,0,0,1,-3,-3v-20a3,3,0,0,1,3,-3z" stroke-width="1"></path><g id="node_text15" fill="black"><text id="kity_text_141" text-rendering="inherit" font-size="14" dy=".8em" y="486.5" x="327.5">Serialport类的运用</text></g></g><g id="minder_node16"><g id="node_expander20" style="cursor: pointer;"><path id="kity_path_298" fill="white" stroke="gray" d="M306.5,737.5A6,6,0,1,1,294.5,737.5A6,6,0,1,1,306.5,737.5"></path><path id="kity_path_299" fill="none" stroke="gray" d="M296,737.5L305,737.5"></path></g><path id="node_outline21" fill="rgb(238, 243, 246)" stroke="rgb(115, 161, 191)" d="M310.5,724.5h104a3,3,0,0,1,3,3v20a3,3,0,0,1,-3,3h-104a3,3,0,0,1,-3,-3v-20a3,3,0,0,1,3,-3z" stroke-width="1"></path><g id="node_text21" fill="black"><text id="kity_text_153" text-rendering="inherit" font-size="14" dy=".8em" y="730.5" x="327.5">绘制实时图</text></g></g><g id="minder_node17"><g id="node_expander15" style="cursor: pointer;" display="none"><path id="kity_path_283" fill="white" stroke="gray" d="M457.5,633.5A6,6,0,1,1,445.5,633.5A6,6,0,1,1,457.5,633.5"></path><path id="kity_path_284" fill="none" stroke="gray"></path></g><path id="node_outline16" fill="none" stroke="none" d="M462.5,622.5h332a5,5,0,0,1,5,5v12a5,5,0,0,1,-5,5h-332a5,5,0,0,1,-5,-5v-12a5,5,0,0,1,5,-5z"></path><g id="node_text16" fill="black"><text id="kity_text_143" text-rendering="inherit" font-size="12" dy=".8em" y="627.5" x="467.5">zedGraph添加：用WindowsFormsHost作为容器，添加zed</text></g></g><g id="minder_node18"><g id="node_expander16" style="cursor: pointer;" display="none"><path id="kity_path_286" fill="white" stroke="gray" d="M457.5,685.5A6,6,0,1,1,445.5,685.5A6,6,0,1,1,457.5,685.5"></path><path id="kity_path_287" fill="none" stroke="gray"></path></g><path id="node_outline17" fill="none" stroke="none" d="M462.5,674.5h217a5,5,0,0,1,5,5v12a5,5,0,0,1,-5,5h-217a5,5,0,0,1,-5,-5v-12a5,5,0,0,1,5,-5z"></path><g id="node_text17" fill="black"><text id="kity_text_145" text-rendering="inherit" font-size="12" dy=".8em" y="679.5" x="467.5">PointPairLis：维护点对列表来更新视图</text></g></g><g id="minder_node19"><g id="node_expander17" style="cursor: pointer;" display="none"><path id="kity_path_289" fill="white" stroke="gray" d="M457.5,737.5A6,6,0,1,1,445.5,737.5A6,6,0,1,1,457.5,737.5"></path><path id="kity_path_290" fill="none" stroke="gray"></path></g><path id="node_outline18" fill="none" stroke="none" d="M462.5,726.5h192a5,5,0,0,1,5,5v12a5,5,0,0,1,-5,5h-192a5,5,0,0,1,-5,-5v-12a5,5,0,0,1,5,-5z"></path><g id="node_text18" fill="black"><text id="kity_text_147" text-rendering="inherit" font-size="12" dy=".8em" y="731.5" x="467.5">PointPair：通过横纵坐标记录点对</text></g></g><g id="minder_node20"><g id="node_expander18" style="cursor: pointer;" display="none"><path id="kity_path_292" fill="white" stroke="gray" d="M457.5,789.5A6,6,0,1,1,445.5,789.5A6,6,0,1,1,457.5,789.5"></path><path id="kity_path_293" fill="none" stroke="gray"></path></g><path id="node_outline19" fill="none" stroke="none" d="M462.5,778.5h236a5,5,0,0,1,5,5v12a5,5,0,0,1,-5,5h-236a5,5,0,0,1,-5,-5v-12a5,5,0,0,1,5,-5z"></path><g id="node_text19" fill="black"><text id="kity_text_149" text-rendering="inherit" font-size="12" dy=".8em" y="783.5" x="467.5">AxisChange：将储存点对的列表画到图中</text></g></g><g id="minder_node21"><g id="node_expander19" style="cursor: pointer;" display="none"><path id="kity_path_295" fill="white" stroke="gray" d="M457.5,841.5A6,6,0,1,1,445.5,841.5A6,6,0,1,1,457.5,841.5"></path><path id="kity_path_296" fill="none" stroke="gray"></path></g><path id="node_outline20" fill="none" stroke="none" d="M462.5,830.5h100a5,5,0,0,1,5,5v12a5,5,0,0,1,-5,5h-100a5,5,0,0,1,-5,-5v-12a5,5,0,0,1,5,-5z"></path><g id="node_text20" fill="black"><text id="kity_text_151" text-rendering="inherit" font-size="12" dy=".8em" y="835.5" x="467.5">Refresh：更新图</text></g></g><g id="minder_node22"><g id="node_expander24" style="cursor: pointer;"><path id="kity_path_310" fill="white" stroke="gray" d="M306.5,955.5A6,6,0,1,1,294.5,955.5A6,6,0,1,1,306.5,955.5"></path><path id="kity_path_311" fill="none" stroke="gray" d="M296,955.5L305,955.5"></path></g><path id="node_outline25" fill="rgb(238, 243, 246)" stroke="rgb(115, 161, 191)" d="M310.5,942.5h118a3,3,0,0,1,3,3v20a3,3,0,0,1,-3,3h-118a3,3,0,0,1,-3,-3v-20a3,3,0,0,1,3,-3z" stroke-width="1"></path><g id="node_text25" fill="black"><text id="kity_text_161" text-rendering="inherit" font-size="14" dy=".8em" y="948.5" x="327.5">滑条设置温度</text></g></g><g id="minder_node23"><g id="node_expander21" style="cursor: pointer;" display="none"><path id="kity_path_301" fill="white" stroke="gray" d="M471.5,903.5A6,6,0,1,1,459.5,903.5A6,6,0,1,1,471.5,903.5"></path><path id="kity_path_302" fill="none" stroke="gray"></path></g><path id="node_outline22" fill="none" stroke="none" d="M476.5,892.5h175a5,5,0,0,1,5,5v12a5,5,0,0,1,-5,5h-175a5,5,0,0,1,-5,-5v-12a5,5,0,0,1,5,-5z"></path><g id="node_text22" fill="black"><text id="kity_text_155" text-rendering="inherit" font-size="12" dy=".8em" y="897.5" x="481.5">LinerGradientBush：绘制组件</text></g></g><g id="minder_node24"><g id="node_expander22" style="cursor: pointer;" display="none"><path id="kity_path_304" fill="white" stroke="gray" d="M471.5,955.5A6,6,0,1,1,459.5,955.5A6,6,0,1,1,471.5,955.5"></path><path id="kity_path_305" fill="none" stroke="gray"></path></g><path id="node_outline23" fill="none" stroke="none" d="M476.5,944.5h121a5,5,0,0,1,5,5v12a5,5,0,0,1,-5,5h-121a5,5,0,0,1,-5,-5v-12a5,5,0,0,1,5,-5z"></path><g id="node_text23" fill="black"><text id="kity_text_157" text-rendering="inherit" font-size="12" dy=".8em" y="949.5" x="481.5">Style：添加样式模版</text></g></g><g id="minder_node25"><g id="node_expander23" style="cursor: pointer;" display="none"><path id="kity_path_307" fill="white" stroke="gray" d="M471.5,1007.5A6,6,0,1,1,459.5,1007.5A6,6,0,1,1,471.5,1007.5"></path><path id="kity_path_308" fill="none" stroke="gray"></path></g><path id="node_outline24" fill="none" stroke="none" d="M476.5,996.5h152a5,5,0,0,1,5,5v12a5,5,0,0,1,-5,5h-152a5,5,0,0,1,-5,-5v-12a5,5,0,0,1,5,-5z"></path><g id="node_text24" fill="black"><text id="kity_text_159" text-rendering="inherit" font-size="12" dy=".8em" y="1001.5" x="481.5">Value：直接读取滑条的值</text></g></g><g id="minder_node26" opacity="1"><g id="node_expander30" style="cursor: pointer;"><path id="kity_path_328" fill="white" stroke="gray" d="M306.5,1173.5A6,6,0,1,1,294.5,1173.5A6,6,0,1,1,306.5,1173.5"></path><path id="kity_path_329" fill="none" stroke="gray" d="M296,1173.5L305,1173.5"></path></g><path id="node_outline31" fill="rgb(238, 243, 246)" stroke="rgb(115, 161, 191)" d="M310.5,1160.5h153a3,3,0,0,1,3,3v20a3,3,0,0,1,-3,3h-153a3,3,0,0,1,-3,-3v-20a3,3,0,0,1,3,-3z" stroke-width="1"></path><g id="node_text31" fill="black"><text id="kity_text_173" text-rendering="inherit" font-size="14" dy=".8em" y="1166.5" x="327.5">log文件保存到本地</text></g></g><g id="minder_node32" opacity="1"><g id="node_expander35" style="cursor: pointer;"><path id="kity_path_343" fill="white" stroke="gray" d="M306.5,1417.5A6,6,0,1,1,294.5,1417.5A6,6,0,1,1,306.5,1417.5"></path><path id="kity_path_344" fill="none" stroke="gray" d="M296,1417.5L305,1417.5"></path></g><path id="node_outline36" fill="rgb(238, 243, 246)" stroke="rgb(115, 161, 191)" d="M310.5,1404.5h90a3,3,0,0,1,3,3v20a3,3,0,0,1,-3,3h-90a3,3,0,0,1,-3,-3v-20a3,3,0,0,1,3,-3z" stroke-width="1"></path><g id="node_text36" fill="black"><text id="kity_text_183" text-rendering="inherit" font-size="14" dy=".8em" y="1410.5" x="327.5">数据绑定</text></g></g><g id="minder_node37" opacity="1"><g id="node_expander39" style="cursor: pointer;"><path id="kity_path_355" fill="white" stroke="gray" d="M306.5,1609.5A6,6,0,1,1,294.5,1609.5A6,6,0,1,1,306.5,1609.5"></path><path id="kity_path_356" fill="none" stroke="gray" d="M296,1609.5L305,1609.5"></path></g><path id="node_outline40" fill="rgb(238, 243, 246)" stroke="rgb(115, 161, 191)" d="M310.5,1596.5h194a3,3,0,0,1,3,3v20a3,3,0,0,1,-3,3h-194a3,3,0,0,1,-3,-3v-20a3,3,0,0,1,3,-3z" stroke-width="1"></path><g id="node_text40" fill="black"><text id="kity_text_191" text-rendering="inherit" font-size="14" dy=".8em" y="1602.5" x="327.5">ComboBox下拉框的使用</text></g></g><g id="minder_node41" opacity="1"><g id="node_expander42" style="cursor: pointer;"><path id="kity_path_364" fill="white" stroke="gray" d="M306.5,1775.5A6,6,0,1,1,294.5,1775.5A6,6,0,1,1,306.5,1775.5"></path><path id="kity_path_365" fill="none" stroke="gray" d="M296,1775.5L305,1775.5"></path></g><path id="node_outline43" fill="rgb(238, 243, 246)" stroke="rgb(115, 161, 191)" d="M310.5,1762.5h122a3,3,0,0,1,3,3v20a3,3,0,0,1,-3,3h-122a3,3,0,0,1,-3,-3v-20a3,3,0,0,1,3,-3z" stroke-width="1"></path><g id="node_text43" fill="black"><text id="kity_text_197" text-rendering="inherit" font-size="14" dy=".8em" y="1768.5" x="327.5">String.Format</text></g></g><g id="minder_node42" opacity="1"><g id="node_expander40" style="cursor: pointer;" display="none"><path id="kity_path_358" fill="white" stroke="gray" d="M475.5,1723.5A6,6,0,1,1,463.5,1723.5A6,6,0,1,1,475.5,1723.5"></path><path id="kity_path_359" fill="none" stroke="gray"></path></g><path id="node_outline41" fill="none" stroke="none" d="M480.5,1712.5h262a5,5,0,0,1,5,5v12a5,5,0,0,1,-5,5h-262a5,5,0,0,1,-5,-5v-12a5,5,0,0,1,5,-5z" stroke-width="3"></path><g id="node_text41" fill="black"><text id="kity_text_193" text-rendering="inherit" font-size="12" dy=".8em" y="1717.5" x="485.5">{0:00.00}：将浮点数以保留两位小数的方式显示</text></g></g><g id="minder_node43" opacity="1"><g id="node_expander41" style="cursor: pointer;" display="none"><path id="kity_path_361" fill="white" stroke="gray" d="M475.5,1775.5A6,6,0,1,1,463.5,1775.5A6,6,0,1,1,475.5,1775.5"></path><path id="kity_path_362" fill="none" stroke="gray" d="M465,1775.5L474,1775.5"></path></g><path id="node_outline42" fill="none" stroke="none" d="M480.5,1764.5h558a5,5,0,0,1,5,5v12a5,5,0,0,1,-5,5h-558a5,5,0,0,1,-5,-5v-12a5,5,0,0,1,5,-5z" stroke-width="3"></path><g id="node_text42" fill="black"><text id="kity_text_195" text-rendering="inherit" font-size="12" dy=".8em" y="1769.5" x="485.5">{0:yyyy-MM-dd-HH-mm-ss}：第二个参数为DateTime.Now.以年-月-日-小时-分钟-秒的方式格式字符串</text></g></g><g id="minder_node46" opacity="1"><g id="node_expander45" style="cursor: pointer;" display="none"><path id="kity_path_390" fill="white" stroke="gray" d="M475.5,1827.5A6,6,0,1,1,463.5,1827.5A6,6,0,1,1,475.5,1827.5"></path><path id="kity_path_391" fill="none" stroke="gray"></path></g><path id="node_outline46" fill="none" stroke="none" d="M480.5,1816.5h627a5,5,0,0,1,5,5v12a5,5,0,0,1,-5,5h-627a5,5,0,0,1,-5,-5v-12a5,5,0,0,1,5,-5z" stroke-width="3"></path><g id="node_text46" fill="black"><text id="kity_text_387" text-rendering="inherit" font-size="12" dy=".8em" y="1821.5" x="485.5">ADVal=0x{0:X4}={0:d}：格式化字符的规则A:BN，A代表第几个参数，B代表数据的格式，C代表保留几位数字/小数&#xa0;</text></g></g><g id="minder_node33"><g id="node_expander31" style="cursor: pointer;" display="none"><path id="kity_path_331" fill="white" stroke="gray" d="M443.5,1339.5A6,6,0,1,1,431.5,1339.5A6,6,0,1,1,443.5,1339.5"></path><path id="kity_path_332" fill="none" stroke="gray"></path></g><path id="node_outline32" fill="none" stroke="none" d="M448.5,1328.5h214a5,5,0,0,1,5,5v12a5,5,0,0,1,-5,5h-214a5,5,0,0,1,-5,-5v-12a5,5,0,0,1,5,-5z"></path><g id="node_text32" fill="black"><text id="kity_text_175" text-rendering="inherit" font-size="12" dy=".8em" y="1333.5" x="453.5">声明一个数据类，用来管理绑定的数据</text></g></g><g id="minder_node34"><g id="node_expander32" style="cursor: pointer;" display="none"><path id="kity_path_334" fill="white" stroke="gray" d="M443.5,1391.5A6,6,0,1,1,431.5,1391.5A6,6,0,1,1,443.5,1391.5"></path><path id="kity_path_335" fill="none" stroke="gray"></path></g><path id="node_outline33" fill="none" stroke="none" d="M448.5,1380.5h329a5,5,0,0,1,5,5v12a5,5,0,0,1,-5,5h-329a5,5,0,0,1,-5,-5v-12a5,5,0,0,1,5,-5z"></path><g id="node_text33" fill="black"><text id="kity_text_177" text-rendering="inherit" font-size="12" dy=".8em" y="1385.5" x="453.5">Binding：声明一个绑定对象，给要绑定数据的控件设置绑定</text></g></g><g id="minder_node35"><g id="node_expander33" style="cursor: pointer;" display="none"><path id="kity_path_337" fill="white" stroke="gray" d="M443.5,1443.5A6,6,0,1,1,431.5,1443.5A6,6,0,1,1,443.5,1443.5"></path><path id="kity_path_338" fill="none" stroke="gray"></path></g><path id="node_outline34" fill="none" stroke="none" d="M448.5,1432.5h450a5,5,0,0,1,5,5v12a5,5,0,0,1,-5,5h-450a5,5,0,0,1,-5,-5v-12a5,5,0,0,1,5,-5z"></path><g id="node_text34" fill="black"><text id="kity_text_179" text-rendering="inherit" font-size="12" dy=".8em" y="1437.5" x="453.5">数据类里面声明一个event propertyChangedEventHandler 用来监听属性的更改</text></g></g><g id="minder_node36"><g id="node_expander34" style="cursor: pointer;" display="none"><path id="kity_path_340" fill="white" stroke="gray" d="M443.5,1495.5A6,6,0,1,1,431.5,1495.5A6,6,0,1,1,443.5,1495.5"></path><path id="kity_path_341" fill="none" stroke="gray"></path></g><path id="node_outline35" fill="none" stroke="none" d="M448.5,1484.5h245a5,5,0,0,1,5,5v12a5,5,0,0,1,-5,5h-245a5,5,0,0,1,-5,-5v-12a5,5,0,0,1,5,-5z"></path><g id="node_text35" fill="black"><text id="kity_text_181" text-rendering="inherit" font-size="12" dy=".8em" y="1489.5" x="453.5">通过PropertyChangedEventArgs更新数据</text></g></g><g id="minder_node27" opacity="1"><g id="node_expander25" style="cursor: pointer;" display="none"><path id="kity_path_313" fill="white" stroke="gray" d="M506.5,1069.5A6,6,0,1,1,494.5,1069.5A6,6,0,1,1,506.5,1069.5"></path><path id="kity_path_314" fill="none" stroke="gray"></path></g><path id="node_outline26" fill="none" stroke="none" d="M511.5,1058.5h287a5,5,0,0,1,5,5v12a5,5,0,0,1,-5,5h-287a5,5,0,0,1,-5,-5v-12a5,5,0,0,1,5,-5z" stroke-width="3"></path><g id="node_text26" fill="black"><text id="kity_text_163" text-rendering="inherit" font-size="12" dy=".8em" y="1063.5" x="516.5">SaveFileDialog：保存文件类，用于保存文件到本地</text></g></g><g id="minder_node28" opacity="1"><g id="node_expander26" style="cursor: pointer;" display="none"><path id="kity_path_316" fill="white" stroke="gray" d="M506.5,1121.5A6,6,0,1,1,494.5,1121.5A6,6,0,1,1,506.5,1121.5"></path><path id="kity_path_317" fill="none" stroke="gray"></path></g><path id="node_outline27" fill="none" stroke="none" d="M511.5,1110.5h180a5,5,0,0,1,5,5v12a5,5,0,0,1,-5,5h-180a5,5,0,0,1,-5,-5v-12a5,5,0,0,1,5,-5z" stroke-width="3"></path><g id="node_text27" fill="black"><text id="kity_text_165" text-rendering="inherit" font-size="12" dy=".8em" y="1115.5" x="516.5">Filter：设置可选保存文件的类型</text></g></g><g id="minder_node29" opacity="1"><g id="node_expander27" style="cursor: pointer;" display="none"><path id="kity_path_319" fill="white" stroke="gray" d="M506.5,1173.5A6,6,0,1,1,494.5,1173.5A6,6,0,1,1,506.5,1173.5"></path><path id="kity_path_320" fill="none" stroke="gray"></path></g><path id="node_outline28" fill="none" stroke="none" d="M511.5,1162.5h197a5,5,0,0,1,5,5v12a5,5,0,0,1,-5,5h-197a5,5,0,0,1,-5,-5v-12a5,5,0,0,1,5,-5z" stroke-width="3"></path><g id="node_text28" fill="black"><text id="kity_text_167" text-rendering="inherit" font-size="12" dy=".8em" y="1167.5" x="516.5">FileName：设置默认保存的文件名</text></g></g><g id="minder_node30" opacity="1"><g id="node_expander28" style="cursor: pointer;" display="none"><path id="kity_path_322" fill="white" stroke="gray" d="M506.5,1225.5A6,6,0,1,1,494.5,1225.5A6,6,0,1,1,506.5,1225.5"></path><path id="kity_path_323" fill="none" stroke="gray"></path></g><path id="node_outline29" fill="none" stroke="none" d="M511.5,1214.5h250a5,5,0,0,1,5,5v12a5,5,0,0,1,-5,5h-250a5,5,0,0,1,-5,-5v-12a5,5,0,0,1,5,-5z" stroke-width="3"></path><g id="node_text29" fill="black"><text id="kity_text_169" text-rendering="inherit" font-size="12" dy=".8em" y="1219.5" x="516.5">RestoreDirectory：恢复上次打开的文件目录</text></g></g><g id="minder_node31" opacity="1"><g id="node_expander29" style="cursor: pointer;" display="none"><path id="kity_path_325" fill="white" stroke="gray" d="M506.5,1277.5A6,6,0,1,1,494.5,1277.5A6,6,0,1,1,506.5,1277.5"></path><path id="kity_path_326" fill="none" stroke="gray"></path></g><path id="node_outline30" fill="none" stroke="none" d="M511.5,1266.5h266a5,5,0,0,1,5,5v12a5,5,0,0,1,-5,5h-266a5,5,0,0,1,-5,-5v-12a5,5,0,0,1,5,-5z" stroke-width="3"></path><g id="node_text30" fill="black"><text id="kity_text_171" text-rendering="inherit" font-size="12" dy=".8em" y="1271.5" x="516.5">FIle.WriteAllText：将字符串全部写入一个文件内</text></g></g><g id="kity_g_12" display="none"><path id="kity_path_13" fill="none" stroke="rgb(66, 94, 112)" d="M-568.5,722.5h266a5,5,0,0,1,5,5v12a5,5,0,0,1,-5,5h-266a5,5,0,0,1,-5,-5v-12a5,5,0,0,1,5,-5z" stroke-width="5"></path></g><g id="minder_node38"><g id="node_expander36" style="cursor: pointer;" display="none"><path id="kity_path_346" fill="white" stroke="gray" d="M547.5,1557.5A6,6,0,1,1,535.5,1557.5A6,6,0,1,1,547.5,1557.5"></path><path id="kity_path_347" fill="none" stroke="gray"></path></g><path id="node_outline37" fill="none" stroke="none" d="M552.5,1546.5h116a5,5,0,0,1,5,5v12a5,5,0,0,1,-5,5h-116a5,5,0,0,1,-5,-5v-12a5,5,0,0,1,5,-5z"></path><g id="node_text37" fill="black"><text id="kity_text_185" text-rendering="inherit" font-size="12" dy=".8em" y="1551.5" x="557.5">items.add：添加项</text></g></g><g id="minder_node39"><g id="node_expander37" style="cursor: pointer;" display="none"><path id="kity_path_349" fill="white" stroke="gray" d="M547.5,1609.5A6,6,0,1,1,535.5,1609.5A6,6,0,1,1,547.5,1609.5"></path><path id="kity_path_350" fill="none" stroke="gray"></path></g><path id="node_outline38" fill="none" stroke="none" d="M552.5,1598.5h184a5,5,0,0,1,5,5v12a5,5,0,0,1,-5,5h-184a5,5,0,0,1,-5,-5v-12a5,5,0,0,1,5,-5z"></path><g id="node_text38" fill="black"><text id="kity_text_187" text-rendering="inherit" font-size="12" dy=".8em" y="1603.5" x="557.5">SelectedItem：设置选中默认项</text></g></g><g id="minder_node40"><g id="node_expander38" style="cursor: pointer;" display="none"><path id="kity_path_352" fill="white" stroke="gray" d="M547.5,1661.5A6,6,0,1,1,535.5,1661.5A6,6,0,1,1,547.5,1661.5"></path><path id="kity_path_353" fill="none" stroke="gray"></path></g><path id="node_outline39" fill="none" stroke="none" d="M552.5,1650.5h172a5,5,0,0,1,5,5v12a5,5,0,0,1,-5,5h-172a5,5,0,0,1,-5,-5v-12a5,5,0,0,1,5,-5z"></path><g id="node_text39" fill="black"><text id="kity_text_189" text-rendering="inherit" font-size="12" dy=".8em" y="1655.5" x="557.5">Items.Clear：清除所有的选项</text></g></g><g id="minder_node12"><g id="node_expander10" style="cursor: pointer;" display="none"><path id="kity_path_268" fill="white" stroke="gray" d="M506.5,415.5A6,6,0,1,1,494.5,415.5A6,6,0,1,1,506.5,415.5"></path><path id="kity_path_269" fill="none" stroke="gray"></path></g><path id="node_outline11" fill="none" stroke="none" d="M511.5,404.5h215a5,5,0,0,1,5,5v12a5,5,0,0,1,-5,5h-215a5,5,0,0,1,-5,-5v-12a5,5,0,0,1,5,-5z"></path><g id="node_text11" fill="black"><text id="kity_text_133" text-rendering="inherit" font-size="12" dy=".8em" y="409.5" x="516.5">DataReceived：串口接收数据的事件</text></g></g><g id="minder_node13"><g id="node_expander11" style="cursor: pointer;" display="none"><path id="kity_path_271" fill="white" stroke="gray" d="M506.5,467.5A6,6,0,1,1,494.5,467.5A6,6,0,1,1,506.5,467.5"></path><path id="kity_path_272" fill="none" stroke="gray"></path></g><path id="node_outline12" fill="none" stroke="none" d="M511.5,456.5h185a5,5,0,0,1,5,5v12a5,5,0,0,1,-5,5h-185a5,5,0,0,1,-5,-5v-12a5,5,0,0,1,5,-5z"></path><g id="node_text12" fill="black"><text id="kity_text_135" text-rendering="inherit" font-size="12" dy=".8em" y="461.5" x="516.5">open：打开串口，正式开始通讯</text></g></g><g id="minder_node14"><g id="node_expander12" style="cursor: pointer;" display="none"><path id="kity_path_274" fill="white" stroke="gray" d="M506.5,519.5A6,6,0,1,1,494.5,519.5A6,6,0,1,1,506.5,519.5"></path><path id="kity_path_275" fill="none" stroke="gray"></path></g><path id="node_outline13" fill="none" stroke="none" d="M511.5,508.5h204a5,5,0,0,1,5,5v12a5,5,0,0,1,-5,5h-204a5,5,0,0,1,-5,-5v-12a5,5,0,0,1,5,-5z"></path><g id="node_text13" fill="black"><text id="kity_text_137" text-rendering="inherit" font-size="12" dy=".8em" y="513.5" x="516.5">BytesToRead：读取串口发送的数据</text></g></g><g id="minder_node15"><g id="node_expander13" style="cursor: pointer;" display="none"><path id="kity_path_277" fill="white" stroke="gray" d="M506.5,571.5A6,6,0,1,1,494.5,571.5A6,6,0,1,1,506.5,571.5"></path><path id="kity_path_278" fill="none" stroke="gray"></path></g><path id="node_outline14" fill="none" stroke="none" d="M511.5,560.5h436a5,5,0,0,1,5,5v12a5,5,0,0,1,-5,5h-436a5,5,0,0,1,-5,-5v-12a5,5,0,0,1,5,-5z"></path><g id="node_text14" fill="black"><text id="kity_text_139" text-rendering="inherit" font-size="12" dy=".8em" y="565.5" x="516.5">write：以byte数组为目标，设置一定的偏移量和数据的长度，将数据发送出去。</text></g></g><g id="minder_node8"><g id="node_expander6" style="cursor: pointer;" display="none"><path id="kity_path_256" fill="white" stroke="gray" d="M443.5,197.5A6,6,0,1,1,431.5,197.5A6,6,0,1,1,443.5,197.5"></path><path id="kity_path_257" fill="none" stroke="gray" d="M433,197.5L442,197.5"></path></g><path id="node_outline7" fill="none" stroke="none" d="M448.5,186.5h233a5,5,0,0,1,5,5v12a5,5,0,0,1,-5,5h-233a5,5,0,0,1,-5,-5v-12a5,5,0,0,1,5,-5z" stroke-width="3"></path><g id="node_text7" fill="black"><text id="kity_text_125" text-rendering="inherit" font-size="12" dy=".8em" y="191.5" x="453.5">AppendText：在TextBox中添加显示数据</text></g></g><g id="minder_node9"><g id="node_expander7" style="cursor: pointer;" display="none"><path id="kity_path_259" fill="white" stroke="gray" d="M443.5,249.5A6,6,0,1,1,431.5,249.5A6,6,0,1,1,443.5,249.5"></path><path id="kity_path_260" fill="none" stroke="gray"></path></g><path id="node_outline8" fill="none" stroke="none" d="M448.5,238.5h250a5,5,0,0,1,5,5v12a5,5,0,0,1,-5,5h-250a5,5,0,0,1,-5,-5v-12a5,5,0,0,1,5,-5z"></path><g id="node_text8" fill="black"><text id="kity_text_127" text-rendering="inherit" font-size="12" dy=".8em" y="243.5" x="453.5">ScrollToEnd：保持视图一直在TextBox的底部</text></g></g><g id="minder_node10"><g id="node_expander8" style="cursor: pointer;" display="none"><path id="kity_path_262" fill="white" stroke="gray" d="M443.5,301.5A6,6,0,1,1,431.5,301.5A6,6,0,1,1,443.5,301.5"></path><path id="kity_path_263" fill="none" stroke="gray"></path></g><path id="node_outline9" fill="none" stroke="none" d="M448.5,290.5h304a5,5,0,0,1,5,5v12a5,5,0,0,1,-5,5h-304a5,5,0,0,1,-5,-5v-12a5,5,0,0,1,5,-5z"></path><g id="node_text9" fill="black"><text id="kity_text_129" text-rendering="inherit" font-size="12" dy=".8em" y="295.5" x="453.5">Int32.parse：直接将16进制的字符串转化为10进制数。</text></g></g><g id="minder_node53" opacity="1"><g id="node_expander52" style="cursor: pointer;" display="none"><path id="kity_path_490" fill="white" stroke="gray" d="M443.5,353.5A6,6,0,1,1,431.5,353.5A6,6,0,1,1,443.5,353.5"></path><path id="kity_path_491" fill="none" stroke="gray"></path></g><path id="node_outline53" fill="none" stroke="none" d="M448.5,342.5h403a5,5,0,0,1,5,5v12a5,5,0,0,1,-5,5h-403a5,5,0,0,1,-5,-5v-12a5,5,0,0,1,5,-5z" stroke-width="3"></path><g id="node_text53" fill="black"><text id="kity_text_487" text-rendering="inherit" font-size="12" dy=".8em" y="347.5" x="453.5">byte[]：在两边各维护一个byte数组，用来读取并储存3字节的16进制数。</text></g></g></g></g></svg>